# xmcd
#
# Track frame offsets:
#	150
#	8510
#	29387
#	48592
#	71757
#	92667
#	107177
#	126955
#	149057
#	166615
#	187707
#	212547
#
# Disc length: 3131 seconds
#
# Revision: 3
# Processed by: cddbd v1.5.2PL0 Copyright (c) Steve Scherf et al.
# Submitted via: audiograbber 1.83.01
#
DISCID=9f0c390c
DTITLE=K-Ci and JoJo - Love Always
DYEAR=1997
DGENRE=R&B
TTITLE0=HBI
TTITLE1=Last Night's Letter
TTITLE2=Baby Come Back
TTITLE3=Just For Your Love
TTITLE4=Now And Forever
TTITLE5=Don't Rush (Take Love Slowly)
TTITLE6=You Bring Me Up
TTITLE7=Still Waiting
TTITLE8=Love Ballad
TTITLE9=How Many Times (Will You Let Him Break Your Heart)
TTITLE10=All My Life
TTITLE11=How Could You (Bonus Track)
EXTD=YEAR: 1997
EXTT0=
EXTT1=
EXTT2=
EXTT3=
EXTT4=
EXTT5=
EXTT6=
EXTT7=
EXTT8=
EXTT9=
EXTT10=
EXTT11=Bonus Track
PLAYORDER=
